<svg xmlns="http://www.w3.org/2000/svg" width="1200" height="630" viewBox="0 0 1200 630">
  <rect width="1200" height="630" fill="#F5EDE6"/>
  <circle cx="112" cy="88" r="260" fill="#0F766E" opacity=".08"/>
  <circle cx="1120" cy="560" r="250" fill="#C9A227" opacity=".09"/>
  <text x="78" y="145" fill="#1A1A1A" font-size="78" font-weight="700" font-family="Caveat, cursive">Daycraft</text>
  <text x="82" y="203" fill="#0F766E" font-size="20" font-weight="700" letter-spacing="3" font-family="Poppins, Arial, sans-serif">A CALMER DAILY ROUTINE PLANNER</text>
  <text x="82" y="268" fill="#1A1A1A" font-size="34" font-weight="700" font-family="Poppins, Arial, sans-serif">Craft your day,</text>
  <text x="82" y="311" fill="#1A1A1A" font-size="34" font-weight="700" font-family="Poppins, Arial, sans-serif">one routine at a time.</text>
  <text x="82" y="365" fill="#5F5A52" font-size="20" font-family="Poppins, Arial, sans-serif">Custom weekly routines. Daily progress.</text>
  <text x="82" y="397" fill="#5F5A52" font-size="20" font-family="Poppins, Arial, sans-serif">A clear view of what matters now.</text>
  <rect x="82" y="450" width="210" height="58" rx="18" fill="#1A1A1A"/>
  <text x="187" y="487" text-anchor="middle" fill="#FFFFFF" font-size="17" font-weight="700" font-family="Poppins, Arial, sans-serif">Get started free</text>
  <g transform="translate(625 68)">
    <rect width="492" height="492" rx="30" fill="#FFFFFF" stroke="#1A1A1A" stroke-opacity=".12"/>
    <text x="30" y="53" fill="#1A1A1A" font-size="34" font-weight="700" font-family="Caveat, cursive">Today</text>
    <text x="30" y="78" fill="#8A8378" font-size="11" font-weight="700" letter-spacing="2" font-family="Poppins, Arial, sans-serif">MY WEEKDAY RHYTHM</text>
    <rect x="30" y="105" width="182" height="338" rx="20" fill="#F5EDE6"/>
    <text x="48" y="141" fill="#1A1A1A" font-size="25" font-weight="700" font-family="Caveat, cursive">Daily checklist</text>
    <rect x="48" y="158" width="145" height="7" rx="4" fill="#1A1A1A" opacity=".1"/>
    <rect x="48" y="158" width="98" height="7" rx="4" fill="#0F766E"/>
    <g font-family="Poppins, Arial, sans-serif" font-size="11" font-weight="600" fill="#1A1A1A">
      <rect x="48" y="188" width="145" height="52" rx="12" fill="#FFFFFF"/><rect x="61" y="204" width="18" height="18" rx="5" fill="#0F766E"/><path d="m65 213 4 4 7-9" fill="none" stroke="#fff" stroke-width="2"/><text x="88" y="218">Plan the day</text>
      <rect x="48" y="250" width="145" height="52" rx="12" fill="#FFFFFF"/><rect x="61" y="266" width="18" height="18" rx="5" fill="#65A30D"/><path d="m65 275 4 4 7-9" fill="none" stroke="#fff" stroke-width="2"/><text x="88" y="280">Move for 30m</text>
      <rect x="48" y="312" width="145" height="52" rx="12" fill="#FFFFFF"/><rect x="61" y="328" width="18" height="18" rx="5" fill="none" stroke="#E11D48" stroke-width="2"/><text x="88" y="342">Read a chapter</text>
    </g>
    <rect x="231" y="105" width="231" height="143" rx="20" fill="#1A1A1A" stroke="#0F766E" stroke-width="3"/>
    <rect x="231" y="105" width="7" height="143" rx="4" fill="#0F766E"/>
    <text x="255" y="137" fill="#FFFFFF" opacity=".65" font-size="11" font-weight="700" font-family="Poppins, Arial, sans-serif">9:00 AM – 11:00 AM</text>
    <rect x="391" y="121" width="51" height="21" rx="11" fill="#0F766E"/><text x="417" y="136" text-anchor="middle" fill="#FFFFFF" font-size="9" font-weight="700" font-family="Poppins, Arial, sans-serif">NOW</text>
    <text x="255" y="178" fill="#FFFFFF" font-size="18" font-weight="700" font-family="Poppins, Arial, sans-serif">Focused project work</text>
    <rect x="255" y="204" width="181" height="7" rx="4" fill="#FFFFFF" opacity=".15"/><rect x="255" y="204" width="105" height="7" rx="4" fill="#0F766E"/>
    <rect x="231" y="264" width="231" height="81" rx="18" fill="#FFFFFF" stroke="#1A1A1A" stroke-opacity=".1"/><rect x="231" y="264" width="6" height="81" rx="3" fill="#C9A227"/><text x="252" y="293" fill="#8A8378" font-size="10" font-weight="700" font-family="Poppins, Arial, sans-serif">11:00 AM – 12:00 PM · NEXT</text><text x="252" y="321" fill="#1A1A1A" font-size="15" font-weight="700" font-family="Poppins, Arial, sans-serif">Lunch and reset</text>
    <rect x="231" y="359" width="231" height="84" rx="18" fill="#8A8378"/><rect x="231" y="359" width="6" height="84" rx="3" fill="#7C8B9C"/><text x="252" y="389" fill="#1A1A1A" opacity=".65" font-size="10" font-weight="700" font-family="Poppins, Arial, sans-serif">1:00 PM – 2:00 PM</text><text x="252" y="418" fill="#1A1A1A" font-size="15" font-weight="700" font-family="Poppins, Arial, sans-serif">Learn something useful</text>
  </g>
</svg>
